<?xml version="1.0" encoding="UTF-8"?>
<!DOCTYPE svg PUBLIC "-//W3C//DTD SVG 1.1//EN" "http://www.w3.org/Graphics/SVG/1.1/DTD/svg11.dtd">
<svg xmlns="http://www.w3.org/2000/svg" version="1.1" width="912px" height="912px" style="shape-rendering:geometricPrecision; text-rendering:geometricPrecision; image-rendering:optimizeQuality; fill-rule:evenodd; clip-rule:evenodd" xmlns:xlink="http://www.w3.org/1999/xlink">
<g><path style="opacity:1" fill="#FFFFFF" d="M 705.5,76.5 C 707.167,76.5 708.833,76.5 710.5,76.5C 710.662,78.5273 710.495,80.5273 710,82.5C 674.5,154.167 639,225.833 603.5,297.5C 633.826,298.5 664.159,298.833 694.5,298.5C 694.66,300.199 694.494,301.866 694,303.5C 686.167,318 678.333,332.5 670.5,347C 639.595,347.171 608.762,347.671 578,348.5C 543.233,419.867 508.066,491.034 472.5,562C 556.516,529.266 640.183,495.433 723.5,460.5C 724.833,470.167 724.833,479.833 723.5,489.5C 633.803,526.018 544.137,562.518 454.5,599C 417.039,674.089 379.705,749.256 342.5,824.5C 332.522,825.499 322.522,825.832 312.5,825.5C 312.338,823.473 312.505,821.473 313,819.5C 346.833,751.833 380.667,684.167 414.5,616.5C 414,616.167 413.5,615.833 413,615.5C 297.557,662.472 182.057,709.305 66.5,756C 64.1902,756.497 61.8568,756.663 59.5,756.5C 59.0236,736.075 59.5236,715.741 61,695.5C 91,654.167 121,612.833 151,571.5C 153.381,570.565 155.881,570.232 158.5,570.5C 158.667,591.169 158.5,611.836 158,632.5C 142.667,657.167 127.333,681.833 112,706.5C 111.018,707.759 110.685,709.092 111,710.5C 218.453,666.404 325.953,622.404 433.5,578.5C 471.434,501.465 509.767,424.632 548.5,348C 524.169,347.5 499.836,347.333 475.5,347.5C 475.34,345.801 475.506,344.134 476,342.5C 483.754,328.659 491.254,314.659 498.5,300.5C 523.399,299.829 548.232,299.162 573,298.5C 599.705,244.922 626.539,191.422 653.5,138C 579.93,166.608 506.596,196.108 433.5,226.5C 437.371,232.97 439.871,239.97 441,247.5C 442.433,257.797 442.767,268.131 442,278.5C 439.437,287.461 434.937,295.294 428.5,302C 426.741,302.798 425.074,302.631 423.5,301.5C 421.821,295.116 419.988,288.783 418,282.5C 413.123,277.954 407.956,273.787 402.5,270C 395.225,267.848 387.892,266.015 380.5,264.5C 368.788,265.685 357.788,269.185 347.5,275C 341,280.167 334.5,285.333 328,290.5C 316.313,305.857 306.647,322.523 299,340.5C 295.283,355.74 292.616,371.073 291,386.5C 323.1,348.599 362.6,338.099 409.5,355C 446.446,373.533 466.113,403.533 468.5,445C 464.999,495.36 438.999,527.36 390.5,541C 361.235,546.516 333.901,541.516 308.5,526C 303.298,521.963 298.631,517.463 294.5,512.5C 293.305,516.614 291.805,520.614 290,524.5C 278.381,541.783 262.881,554.283 243.5,562C 200.684,568.929 159.517,563.429 120,545.5C 104.8,564.004 85.9665,568.838 63.5,560C 40.3777,544.011 35.2111,523.511 48,498.5C 64.0905,479.231 83.5905,474.898 106.5,485.5C 108.909,485.085 111.242,484.418 113.5,483.5C 131.333,455.167 149.167,426.833 167,398.5C 175.467,383.233 183.134,367.566 190,351.5C 194.573,334.823 188.406,324.323 171.5,320C 151.642,314.633 134.475,319.133 120,333.5C 112.407,350.648 117.574,361.981 135.5,367.5C 136.499,383.486 136.833,399.486 136.5,415.5C 102.865,415.025 83.8652,398.192 79.5,365C 80.1412,334.708 92.8079,311.041 117.5,294C 127.076,289.045 136.742,284.378 146.5,280C 162.092,275.809 177.758,275.475 193.5,279C 212.243,287.961 223.076,302.795 226,323.5C 226.94,343.202 224.606,362.535 219,381.5C 207.211,407.75 193.877,433.083 179,457.5C 168.253,471.08 158.086,485.08 148.5,499.5C 152,501.615 155.667,503.448 159.5,505C 187.684,512.143 215.684,511.477 243.5,503C 247,499.5 250.5,496 254,492.5C 256,488.5 258,484.5 260,480.5C 259.782,462.987 258.948,445.487 257.5,428C 256.998,377.508 268.498,330.008 292,285.5C 302.886,265.55 315.386,246.717 329.5,229C 335.552,223.947 341.885,219.281 348.5,215C 467.796,169.296 586.796,123.129 705.5,76.5 Z M 361.5,397.5 C 385.009,395.73 406.342,401.564 425.5,415C 445.117,432.39 447.617,451.89 433,473.5C 418.661,488.251 401.161,496.417 380.5,498C 356.982,500.267 335.649,494.601 316.5,481C 296.883,463.61 294.383,444.11 309,422.5C 323.529,407.818 341.029,399.484 361.5,397.5 Z"/></g>
<g><path style="opacity:1" fill="#FFFFFF" d="M 567.5,640.5 C 571.722,641.071 573.722,643.571 573.5,648C 573.265,662.717 571.431,677.217 568,691.5C 564,696.833 560,696.833 556,691.5C 551.048,682.594 546.381,673.594 542,664.5C 540.312,675.437 538.978,686.437 538,697.5C 536.867,699.211 535.367,699.711 533.5,699C 532.349,689.244 532.182,679.411 533,669.5C 533.189,661.691 534.189,654.024 536,646.5C 539.641,644.26 542.974,644.927 546,648.5C 549.397,656.692 552.397,665.025 555,673.5C 556.434,677.382 558.6,680.715 561.5,683.5C 562.971,682.619 563.804,681.286 564,679.5C 564.333,669.833 564.667,660.167 565,650.5C 565.146,646.942 565.979,643.609 567.5,640.5 Z"/></g>
<g><path style="opacity:1" fill="#FFFFFF" d="M 643.5,641.5 C 648.213,641.468 649.713,643.801 648,648.5C 642.667,657.833 637.333,667.167 632,676.5C 629.528,683.389 627.528,690.389 626,697.5C 621.702,700.765 619.202,699.765 618.5,694.5C 619.994,688.21 620.828,681.876 621,675.5C 617.947,672.113 615.28,668.447 613,664.5C 612.449,659.455 612.782,654.455 614,649.5C 615.574,644.201 618.574,642.868 623,645.5C 621.949,651.768 621.282,658.101 621,664.5C 622.666,667.379 625.166,668.212 628.5,667C 634.142,658.884 639.142,650.384 643.5,641.5 Z"/></g>
<g><path style="opacity:1" fill="#FFFFFF" d="M 864.5,642.5 C 866.958,642.227 868.625,643.227 869.5,645.5C 868.764,647.541 867.931,649.541 867,651.5C 861.028,659.305 854.528,666.638 847.5,673.5C 847.529,675.029 848.196,676.196 849.5,677C 856.624,680.98 863.124,685.814 869,691.5C 869.659,694.353 868.492,696.02 865.5,696.5C 863.39,695.946 861.39,695.112 859.5,694C 854.827,688.994 849.827,684.328 844.5,680C 842.564,679.187 840.564,678.687 838.5,678.5C 838.691,685.681 837.358,692.515 834.5,699C 832.888,699.72 831.388,699.554 830,698.5C 830.565,681.522 831.232,664.522 832,647.5C 833.786,644.638 836.119,643.972 839,645.5C 840.274,652.103 840.774,658.77 840.5,665.5C 842.783,665.392 844.783,664.559 846.5,663C 853.454,656.888 859.454,650.054 864.5,642.5 Z"/></g>
<g><path style="opacity:1" fill="#FFFFFF" d="M 508.5,643.5 C 520.726,643.556 527.393,649.723 528.5,662C 526.155,675.026 520.155,686.026 510.5,695C 502.595,699.575 494.262,700.575 485.5,698C 476.253,689.534 474.086,679.367 479,667.5C 485.713,655.573 495.546,647.573 508.5,643.5 Z M 505.5,651.5 C 514.925,649.77 520.259,653.603 521.5,663C 519.474,673.365 514.474,682.031 506.5,689C 500.561,693.898 494.228,694.564 487.5,691C 481.631,672.564 487.631,659.397 505.5,651.5 Z"/></g>
<g><path style="opacity:1" fill="#FFFFFF" d="M 584.5,642.5 C 588.792,642.809 590.459,645.142 589.5,649.5C 588.325,659.549 586.825,669.549 585,679.5C 584.333,683.167 584.333,686.833 585,690.5C 586.726,691.576 588.559,691.743 590.5,691C 595.001,688.584 599.334,685.917 603.5,683C 605.81,682.503 608.143,682.337 610.5,682.5C 611.041,685.652 610.041,688.152 607.5,690C 602.659,692.921 597.659,695.588 592.5,698C 582.147,701.654 576.48,697.987 575.5,687C 578.055,673.894 580.221,660.728 582,647.5C 582.366,645.548 583.199,643.882 584.5,642.5 Z"/></g>
<g><path style="opacity:1" fill="#FFFFFF" d="M 753.5,643.5 C 775.805,643.961 784.305,654.961 779,676.5C 767.998,695.585 751.831,702.419 730.5,697C 720.771,689.925 718.271,680.759 723,669.5C 728.813,655.506 738.98,646.839 753.5,643.5 Z M 751.5,650.5 C 767.075,650.914 773.908,658.914 772,674.5C 764.029,689.739 751.863,694.906 735.5,690C 730.688,685.899 728.855,680.732 730,674.5C 733.9,663.44 741.067,655.44 751.5,650.5 Z"/></g>
<g><path style="opacity:1" fill="#FFFFFF" d="M 814.5,642.5 C 817.272,642.22 819.772,642.887 822,644.5C 825.231,649.148 826.064,654.148 824.5,659.5C 822.801,659.66 821.134,659.494 819.5,659C 818.594,656.553 817.761,654.053 817,651.5C 815.612,650.446 814.112,650.28 812.5,651C 801.41,658.368 794.743,668.534 792.5,681.5C 792.5,690.999 797.166,694.832 806.5,693C 812.218,690.471 817.884,687.971 823.5,685.5C 828.024,686.24 828.69,688.406 825.5,692C 815.049,699.707 803.716,701.374 791.5,697C 785.453,692.365 783.286,686.198 785,678.5C 789.179,661.825 799.012,649.825 814.5,642.5 Z"/></g>
<g><path style="opacity:1" fill="#FFFFFF" d="M 700.5,647.5 C 703.85,647.335 707.183,647.502 710.5,648C 717.813,648.652 720.313,652.486 718,659.5C 716.92,661.996 715.586,664.33 714,666.5C 707.191,671.148 700.691,676.148 694.5,681.5C 695.128,683.258 696.128,684.758 697.5,686C 701.723,687.944 706.056,689.611 710.5,691C 712.439,691.908 713.439,693.408 713.5,695.5C 708.372,696.779 703.372,696.279 698.5,694C 694.323,691.152 690.156,688.318 686,685.5C 685.228,685.645 684.561,685.978 684,686.5C 683.485,690.577 682.651,694.577 681.5,698.5C 679.389,699.848 677.555,699.515 676,697.5C 676.536,682.407 678.203,667.407 681,652.5C 687.457,650.248 693.957,648.581 700.5,647.5 Z M 694.5,654.5 C 699.5,654.5 704.5,654.5 709.5,654.5C 707.883,659.531 704.883,663.697 700.5,667C 696.353,670.909 691.686,674.076 686.5,676.5C 685.304,671.142 685.471,665.809 687,660.5C 688.707,657.41 691.207,655.41 694.5,654.5 Z"/></g>
</svg>
